<svg id="Layer_1" data-name="Layer 1" xmlns="http://www.w3.org/2000/svg" viewBox="0 0 453.54 179.38"><defs><style>.cls-1{fill:none;}.cls-2{fill:#e8e5d1;}</style></defs><title>arr-creativity</title><g id="wires"><path class="cls-1" d="M285.69,1.95a44,44,0,0,0,1-6.65,2.69,2.69,0,0,1-1-1.81q-14.38.45-28.38.45c-32.33,0-62.79-1.68-89.92-4.1a3,3,0,0,1-.82,1.42,89.43,89.43,0,0,1,.79,10.3,2.42,2.42,0,0,1,1.22,1.71c12.8.06,26.09-.09,40.12-.25,22.81-.26,46.41-.52,70.59.09q2.5.06,5,.08A2.07,2.07,0,0,1,285.69,1.95Z" transform="translate(0 40.19)"/><path d="M288.73-4.67a2.71,2.71,0,0,0,1.06-2C343-8.58,399.6-15.59,453.54-31.48v-2.06c-54,15.93-110.88,23-164.19,24.91a1.93,1.93,0,0,0-1.6-1,2,2,0,0,0-1.67,1.09,988.81,988.81,0,0,1-118.7-3.65c-2-6.41.5-1.85-2.12-1.85a2.26,2.26,0,0,0-2,1.48c-5.55-.52-11-1.06-16.19-1.63C69.54-22.58,14.74-36.37,0-40.19V-38c15,3.86,71.89,17.7,146.85,25.82,5.23.57,10.64,1.11,16.18,1.63a2.74,2.74,0,0,0,1.6,2.24,85.5,85.5,0,0,1,.76,10.13,3.1,3.1,0,0,0-1.06,1.42C88.21,2.16,7.12-24.92,0-27.34v2.17c1.91.72,5.92,1.94,13.81,4.33,8.59,2.6,22.29,6.53,38.74,10.48C81-3.53,123.19,4.62,164.17,5.22a2.47,2.47,0,0,0,1.13,1.69l1.2,120.89,2,0-1.2-121a3.08,3.08,0,0,0,1.19-1.55l6.09,0c11,0,22.31-.13,34.19-.26,22.8-.26,46.37-.52,70.52.09,1.63,0,3.26.06,4.89.08a2.68,2.68,0,0,0,1.11,1.68l1.2,120.94,2,0-1.2-121a2.58,2.58,0,0,0,.89-1.59c54.92-.28,113.75-15.46,165.38-30.09v-2.14c-51.72,14.67-110.71,30-165.66,30.24a2.77,2.77,0,0,0-.31-.49A39.32,39.32,0,0,0,288.73-4.67ZM208.74,3c-14,.16-27.32.31-40.12.25a2.42,2.42,0,0,0-1.22-1.71,89.43,89.43,0,0,0-.79-10.3,3,3,0,0,0,.82-1.42c27.13,2.42,57.59,4.1,89.92,4.1q14,0,28.38-.45a2.69,2.69,0,0,0,1,1.81,44,44,0,0,1-1,6.65,2.07,2.07,0,0,0-1.35,1.23q-2.51,0-5-.08C255.14,2.49,231.55,2.75,208.74,3Z" transform="translate(0 40.19)"/></g><g id="arrow-right"><path d="M143.26,80.52,146,138.1l161.73-7.68,27.63-30.17L305,72.83Zm163.59,48-159,7.56-2.55-53.79.52,0L304.3,74.77l28.37,25.61Z" transform="translate(0 40.19)"/><path class="cls-2" d="M305.37,71.77,145.63,79.36l-3.47.16L145,139.2l163.2-7.75,28.64-31.27Zm30,28.48-27.63,30.17L146,138.1l-2.73-57.59L305,72.83Z" transform="translate(0 40.19)"/><polygon class="cls-2" points="145.77 122.49 145.25 122.51 147.81 176.3 306.85 168.75 332.67 140.56 304.3 114.96 145.77 122.49"/></g><path d="M158.22,118.44a17,17,0,0,0,6-1.37l1.17,3.19a16.71,16.71,0,0,1-4.91,1,17,17,0,0,1-4.51-.32,8.09,8.09,0,0,1-3.08-1.26,25,25,0,0,1-.75-4.95,21.35,21.35,0,0,1,1.45-9.17,13.3,13.3,0,0,1,4.07-5.9l6,3.38a20.08,20.08,0,0,0-6.24,7,15.92,15.92,0,0,0-2,8.33A18,18,0,0,0,158.22,118.44Z" transform="translate(0 40.19)"/><path d="M174.32,112.24a2.9,2.9,0,0,1-.86.22L173,120l-3,.44-2.63-19.22a29.66,29.66,0,0,1,4.17-1.13,31.84,31.84,0,0,1,5-.66,11.52,11.52,0,0,1,6.21,1.14,9.49,9.49,0,0,1,.68,2.94q.18,3.78-4,6.44l5.49,9.32-2,1.27Zm3.39-7.58a3.61,3.61,0,0,0-2-3.18,5.23,5.23,0,0,0-1.6.38l-.49,8.67a8,8,0,0,0,3.12-2.66A5.29,5.29,0,0,0,177.71,104.65Z" transform="translate(0 40.19)"/><path d="M202.31,118.52l-11.7.83-2.36-19.68,13.2-1.05v2l-6.29,1.05-.48,6.24,6.38-.37.28,2.69-6.8-.18-.49,6.72,8.22-1.36Z" transform="translate(0 40.19)"/><path d="M205.43,118.37l4.65-20.2,7.27.1,4.83,19.29-2.68.58-2.31-4.87-7.94,1-.81,4.36Zm6.15-16.48L209.68,112l6.78-.26-4.65-9.84Z" transform="translate(0 40.19)"/><path d="M223.19,98l15.29-1.15v2l-4.18.62-1,17.71-3.28.46-2.33-17.19-4.18.62Z" transform="translate(0 40.19)"/><path d="M244.55,116.92,241.89,97.1l7.11-.79-1.17,20.15Z" transform="translate(0 40.19)"/><path d="M259.16,95.82l3.15,14.93h.27l3.62-15.25,2.73.59-5.58,19.52-2.67.58L252.33,97Z" transform="translate(0 40.19)"/><path d="M275.42,115.44l-2.66-19.81,7.11-.79L278.7,115Z" transform="translate(0 40.19)"/><path d="M283.93,95.06l15.29-1.15v2l-4.18.62-1,17.71-3.28.46-2.33-17.19-4.18.62Z" transform="translate(0 40.19)"/><path d="M306.53,93.55l2.92,10.73h.27l3.8-11,2.46.54-4.57,12.38-.8,7.22-3,.44-1.25-6.64-6.55-12.57Z" transform="translate(0 40.19)"/></svg>