<svg id="Layer_1" data-name="Layer 1" xmlns="http://www.w3.org/2000/svg" viewBox="0 0 453.54 453.54"><defs><style>.cls-1{fill:#f15a24;}.cls-2{fill:#666;}.cls-3{fill:gray;}.cls-4{fill:#f7931e;}.cls-5{fill:#1a1a1a;}.cls-6{fill:#4d4d4d;}.cls-7{fill:#b3b3b3;}</style></defs><title>Artboard 3</title><rect class="cls-1" width="453.54" height="453.54"/><polygon class="cls-2" points="322.96 137.61 319.14 158.33 337.03 158.33 336.83 143.48 322.96 137.61"/><polygon class="cls-2" points="417.32 23.46 453.54 41.98 453.54 103.08 392.89 124.67 417.32 23.46"/><polygon class="cls-3" points="36.08 23.46 0 40.67 0 168.13 83.17 170.84 36.08 23.46"/><polygon class="cls-4" points="280.47 170.84 274.04 171.96 272.63 182.3 278.99 181.49 280.47 170.84"/><polygon class="cls-4" points="290.85 168.96 284.4 170.14 282.87 180.98 289.25 180.11 290.85 168.96"/><polygon class="cls-4" points="301.28 166.95 294.8 168.21 293.16 179.56 299.56 178.63 301.28 166.95"/><polygon class="cls-4" points="311.75 164.83 305.25 166.16 303.48 178.04 309.91 177.05 311.75 164.83"/><polygon class="cls-4" points="322.27 162.6 315.74 164 313.84 176.43 320.29 175.37 322.27 162.6"/><polygon class="cls-4" points="278.13 187.67 271.81 188.3 270.39 198.64 276.64 198.32 278.13 187.67"/><polygon class="cls-4" points="286.73 197.74 288.33 186.58 281.99 187.27 280.46 198.11 286.73 197.74"/><polygon class="cls-4" points="296.84 197.09 298.56 185.41 292.21 186.15 290.56 197.5 296.84 197.09"/><polygon class="cls-4" points="306.99 196.36 308.84 184.14 302.46 184.94 300.69 196.82 306.99 196.36"/><polygon class="cls-4" points="317.16 195.55 319.14 182.78 312.74 183.63 310.84 196.06 317.16 195.55"/><polygon class="cls-4" points="275.78 204.49 269.58 204.64 268.16 214.98 274.3 215.14 275.78 204.49"/><polygon class="cls-4" points="278.05 215.23 284.2 215.37 285.8 204.21 279.58 204.39 278.05 215.23"/><polygon class="cls-4" points="295.85 203.86 289.61 204.09 287.96 215.44 294.13 215.54 295.85 203.86"/><polygon class="cls-4" points="305.92 203.44 299.66 203.71 297.89 215.59 304.07 215.66 305.92 203.44"/><polygon class="cls-4" points="309.74 203.26 307.85 215.69 314.04 215.72 316.01 202.95 309.74 203.26"/><polygon class="cls-4" points="273.44 221.32 267.34 220.98 265.93 231.32 271.95 231.97 273.44 221.32"/><polygon class="cls-4" points="275.64 232.36 281.68 232.99 283.27 221.84 277.17 221.52 275.64 232.36"/><polygon class="cls-4" points="285.37 233.38 291.41 233.99 293.13 222.31 287.01 222.02 285.37 233.38"/><polygon class="cls-4" points="303 222.74 296.87 222.48 295.1 234.36 301.15 234.96 303 222.74"/><polygon class="cls-4" points="304.85 235.32 310.91 235.9 312.88 223.13 306.75 222.9 304.85 235.32"/><polygon class="cls-4" points="271.1 238.14 265.11 237.31 263.7 247.65 269.61 248.79 271.1 238.14"/><polygon class="cls-4" points="280.75 239.46 274.76 238.65 273.23 249.49 279.15 250.62 280.75 239.46"/><polygon class="cls-4" points="290.41 240.76 284.41 239.96 282.77 251.31 288.69 252.44 290.41 240.76"/><polygon class="cls-4" points="300.08 242.05 294.07 241.25 292.31 253.13 298.23 254.26 300.08 242.05"/><polygon class="cls-4" points="301.85 254.95 307.78 256.08 309.76 243.31 303.75 242.53 301.85 254.95"/><polygon class="cls-4" points="268.75 254.97 262.88 253.65 261.46 263.99 267.27 265.62 268.75 254.97"/><polygon class="cls-4" points="270.82 266.61 276.62 268.25 278.22 257.09 272.35 255.77 270.82 266.61"/><polygon class="cls-4" points="287.69 259.22 281.81 257.9 280.17 269.25 285.97 270.9 287.69 259.22"/><polygon class="cls-4" points="297.16 261.35 291.28 260.02 289.51 271.91 295.31 273.57 297.16 261.35"/><polygon class="cls-4" points="298.85 274.59 304.65 276.26 306.63 263.49 300.75 262.16 298.85 274.59"/><polygon class="cls-4" points="260.64 269.99 259.23 280.33 264.93 282.44 266.41 271.79 260.64 269.99"/><polygon class="cls-4" points="269.93 272.9 268.41 283.74 274.1 285.87 275.69 274.72 269.93 272.9"/><polygon class="cls-4" points="279.22 275.83 277.57 287.19 283.25 289.35 284.97 277.67 279.22 275.83"/><polygon class="cls-4" points="288.49 278.8 286.72 290.68 292.39 292.87 294.24 280.65 288.49 278.8"/><polygon class="cls-4" points="295.85 294.22 301.52 296.44 303.5 283.66 297.75 281.79 295.85 294.22"/><polygon class="cls-4" points="257 296.67 262.59 299.27 264.07 288.62 258.41 286.33 257 296.67"/><polygon class="cls-4" points="266 300.86 271.57 303.5 273.17 292.34 267.52 290.02 266 300.86"/><polygon class="cls-4" points="274.97 305.12 280.53 307.8 282.25 296.12 276.62 293.77 274.97 305.12"/><polygon class="cls-4" points="283.93 309.45 289.47 312.17 291.32 299.95 285.69 297.57 283.93 309.45"/><polygon class="cls-4" points="292.86 313.85 298.39 316.62 300.37 303.84 294.75 301.42 292.86 313.85"/><polygon class="cls-4" points="354.44 97.2 347.46 100.34 344.81 116.8 351.69 114.11 354.44 97.2"/><polygon class="cls-4" points="365.76 91.99 358.73 95.25 355.9 112.42 362.82 109.62 365.76 91.99"/><polygon class="cls-4" points="377.16 86.58 370.08 89.96 367.06 107.87 374.03 104.96 377.16 86.58"/><polygon class="cls-4" points="388.63 80.97 381.5 84.47 378.3 103.14 385.3 100.12 388.63 80.97"/><polygon class="cls-4" points="400.18 75.16 393 78.79 389.6 98.24 396.64 95.1 400.18 75.16"/><polygon class="cls-4" points="350.09 123.91 343.28 126.35 340.63 142.81 347.34 140.81 350.09 123.91"/><polygon class="cls-4" points="351.44 139.56 358.18 137.48 361.12 119.85 354.27 122.39 351.44 139.56"/><polygon class="cls-4" points="362.31 136.18 369.08 134 372.21 115.62 365.32 118.26 362.31 136.18"/><polygon class="cls-4" points="373.23 132.65 380.04 130.38 383.37 111.23 376.44 113.97 373.23 132.65"/><polygon class="cls-4" points="387.62 109.52 384.21 128.97 391.06 126.61 394.59 106.67 387.62 109.52"/><polygon class="cls-4" points="345.74 150.61 339.1 152.35 336.45 168.82 342.99 167.52 345.74 150.61"/><polygon class="cls-4" points="346.98 166.7 353.54 165.34 356.48 147.7 349.81 149.53 346.98 166.7"/><polygon class="cls-4" points="357.56 164.48 364.14 163.04 367.27 144.66 360.57 146.56 357.56 164.48"/><polygon class="cls-4" points="368.17 162.14 374.79 160.64 378.11 141.49 371.38 143.47 368.17 162.14"/><polygon class="cls-4" points="378.84 159.69 385.48 158.11 389.01 138.17 382.24 140.25 378.84 159.69"/><polygon class="cls-4" points="341.39 177.32 334.92 178.36 332.28 194.82 338.63 194.22 341.39 177.32"/><polygon class="cls-4" points="342.52 193.84 348.9 193.2 351.84 175.56 345.35 176.67 342.52 193.84"/><polygon class="cls-4" points="362.33 173.7 355.81 174.87 352.8 192.78 359.2 192.09 362.33 173.7"/><polygon class="cls-4" points="366.31 172.97 363.11 191.64 369.53 190.9 372.86 171.74 366.31 172.97"/><polygon class="cls-4" points="383.43 169.68 376.86 170.97 373.46 190.42 379.89 189.62 383.43 169.68"/><polygon class="cls-4" points="337.03 204.03 330.74 204.37 328.1 220.83 334.28 220.93 337.03 204.03"/><polygon class="cls-4" points="338.06 220.98 344.26 221.05 347.19 203.42 340.88 203.81 338.06 220.98"/><polygon class="cls-4" points="348.05 221.09 354.25 221.13 357.38 202.75 351.06 203.17 348.05 221.09"/><polygon class="cls-4" points="367.6 202 361.25 202.47 358.05 221.14 364.27 221.15 367.6 202"/><polygon class="cls-4" points="377.85 201.18 371.48 201.7 368.08 221.15 374.31 221.12 377.85 201.18"/><polygon class="cls-4" points="332.68 230.73 326.56 230.37 323.92 246.83 329.93 247.63 332.68 230.73"/><polygon class="cls-4" points="342.56 231.28 336.42 230.94 333.6 248.12 339.62 248.91 342.56 231.28"/><polygon class="cls-4" points="352.44 231.79 346.3 231.47 343.29 249.39 349.31 250.17 352.44 231.79"/><polygon class="cls-4" points="362.34 232.26 356.19 231.97 352.99 250.64 359.01 251.41 362.34 232.26"/><polygon class="cls-4" points="372.26 232.69 366.1 232.42 362.7 251.87 368.73 252.63 372.26 232.69"/><polygon class="cls-4" points="325.57 274.34 328.33 257.44 322.38 256.38 319.74 272.84 325.57 274.34"/><polygon class="cls-4" points="329.14 275.26 334.97 276.77 337.91 259.14 331.96 258.08 329.14 275.26"/><polygon class="cls-4" points="347.5 260.83 341.55 259.78 338.54 277.69 344.37 279.21 347.5 260.83"/><polygon class="cls-4" points="357.09 262.51 351.13 261.47 347.93 280.14 353.76 281.66 357.09 262.51"/><polygon class="cls-4" points="360.73 263.15 357.32 282.6 363.15 284.13 366.68 264.19 360.73 263.15"/><polygon class="cls-4" points="315.56 298.85 321.22 301.05 323.98 284.14 318.2 282.39 315.56 298.85"/><polygon class="cls-4" points="324.68 302.4 330.33 304.63 333.27 286.99 327.5 285.22 324.68 302.4"/><polygon class="cls-4" points="333.78 306 339.43 308.25 342.56 289.87 336.79 288.08 333.78 306"/><polygon class="cls-4" points="342.87 309.64 348.5 311.92 351.83 292.77 346.07 290.97 342.87 309.64"/><polygon class="cls-4" points="351.94 313.33 357.56 315.64 361.1 295.7 355.35 293.88 351.94 313.33"/><polygon class="cls-4" points="413.66 122.73 406.77 125.18 403.43 143.48 410.2 141.49 413.66 122.73"/><polygon class="cls-4" points="424.82 118.67 417.89 121.21 414.35 140.24 421.16 138.17 424.82 118.67"/><polygon class="cls-4" points="436.04 114.47 429.06 117.1 425.33 136.88 432.17 134.72 436.04 114.47"/><polygon class="cls-4" points="447.31 110.11 440.31 112.83 436.36 133.38 443.23 131.14 447.31 110.11"/><polygon class="cls-4" points="447.44 129.74 453.54 127.69 453.54 107.64 451.61 108.41 447.44 129.74"/><polygon class="cls-4" points="404.74 171.12 408.2 152.36 401.5 154.1 398.16 172.4 404.74 171.12"/><polygon class="cls-4" points="408.77 170.31 415.38 168.97 419.04 149.47 412.31 151.28 408.77 170.31"/><polygon class="cls-4" points="419.43 168.13 426.06 166.72 429.93 146.46 423.17 148.35 419.43 168.13"/><polygon class="cls-4" points="434.07 145.29 430.13 165.83 436.79 164.36 440.87 143.33 434.07 145.29"/><polygon class="cls-4" points="440.87 163.44 447.55 161.9 451.86 140.08 445.03 142.11 440.87 163.44"/><polygon class="cls-4" points="392.89 201.32 399.28 200.75 402.74 181.99 396.23 183.02 392.89 201.32"/><polygon class="cls-4" points="403.19 200.38 409.6 199.77 413.26 180.27 406.73 181.35 403.19 200.38"/><polygon class="cls-4" points="413.53 199.38 419.96 198.71 423.82 178.46 417.26 179.6 413.53 199.38"/><polygon class="cls-4" points="423.89 198.29 430.34 197.58 434.42 176.56 427.84 177.75 423.89 198.29"/><polygon class="cls-4" points="445.06 174.56 438.45 175.81 434.28 197.14 440.75 196.38 445.06 174.56"/><polygon class="cls-4" points="387.62 230.24 393.82 230.38 397.28 211.62 390.96 211.94 387.62 230.24"/><polygon class="cls-4" points="397.61 230.45 403.82 230.56 407.48 211.07 401.14 211.42 397.61 230.45"/><polygon class="cls-4" points="407.63 230.63 413.85 230.71 417.72 210.46 411.36 210.84 407.63 230.63"/><polygon class="cls-4" points="427.97 209.78 421.6 210.21 417.66 230.75 423.89 230.81 427.97 209.78"/><polygon class="cls-4" points="431.87 209.5 427.71 230.83 433.96 230.86 438.26 209.04 431.87 209.5"/><polygon class="cls-4" points="391.81 241.25 385.68 240.85 382.35 259.16 388.36 260.01 391.81 241.25"/><polygon class="cls-4" points="392.03 260.52 398.05 261.36 401.7 241.87 395.56 241.49 392.03 260.52"/><polygon class="cls-4" points="401.72 261.87 407.74 262.7 411.61 242.45 405.46 242.09 401.72 261.87"/><polygon class="cls-4" points="421.53 243 415.37 242.66 411.42 263.21 417.45 264.03 421.53 243"/><polygon class="cls-4" points="431.46 243.52 425.29 243.2 421.13 264.53 427.16 265.34 431.46 243.52"/><polygon class="cls-4" points="386.36 270.88 380.41 269.77 377.08 288.08 382.9 289.64 386.36 270.88"/><polygon class="cls-4" points="395.93 272.67 389.98 271.56 386.45 290.59 392.27 292.16 395.93 272.67"/><polygon class="cls-4" points="395.82 293.12 401.64 294.7 405.5 274.45 399.56 273.34 395.82 293.12"/><polygon class="cls-4" points="415.08 276.23 409.13 275.12 405.19 295.67 411 297.25 415.08 276.23"/><polygon class="cls-4" points="418.71 276.9 414.55 298.23 420.36 299.82 424.66 278 418.71 276.9"/><polygon class="cls-4" points="380.89 300.51 375.14 298.69 371.81 317 377.44 319.27 380.89 300.51"/><polygon class="cls-4" points="390.15 303.47 384.4 301.63 380.87 320.66 386.49 322.96 390.15 303.47"/><polygon class="cls-4" points="399.39 306.44 393.66 304.59 389.92 324.37 395.53 326.69 399.39 306.44"/><polygon class="cls-4" points="408.63 309.45 402.9 307.58 398.95 328.12 404.55 330.48 408.63 309.45"/><polygon class="cls-4" points="407.97 331.92 413.56 334.31 417.86 312.48 412.13 310.6 407.97 331.92"/><polygon class="cls-4" points="369.87 327.61 366.54 345.92 371.97 348.9 375.43 330.14 369.87 327.61"/><polygon class="cls-4" points="378.82 331.7 375.29 350.73 380.71 353.76 384.37 334.26 378.82 331.7"/><polygon class="cls-4" points="387.75 335.84 384.02 355.62 389.42 358.69 393.29 338.44 387.75 335.84"/><polygon class="cls-4" points="396.67 340.04 392.72 360.58 398.1 363.7 402.19 342.67 396.67 340.04"/><polygon class="cls-4" points="401.39 365.62 406.76 368.79 411.06 346.96 405.56 344.29 401.39 365.62"/><path d="M410.66,60.55l.93-5.17,5.74-31.91-33,20.84-4.86,28.55L341,92.11,331.69,151l-11.24,2.9L323,137.61l-39.47,11.52-1.92,13.77-14.22,2.89L238.75,379.9,287,434.08l14.24,19.46H453.54V381.73l-.06.29-5.36-3.12,5.42-25.72V334.49l-5.45-2.08,5.45-26.23V288l-.43,2.1-5.91-1.24,5.19-25.36,1.15.13V239.24l-1.91,9.37-6.16-.36,4.94-24.47,3.13-.09V209.56l-.27,0,.27-1.34V127.69l-6.09,2,4.16-21.33,1.93-.77V92.54l-52.63,22.22ZM393,78.79l7.18-3.63L396.64,95.1l-7,3.14ZM333.6,248.12l2.82-17.18,6.13.33-2.94,17.63Zm4.31,11L335,276.77l-5.83-1.51L332,258.08Zm75.94-28.43-6.23-.08,3.73-19.78,6.36-.39Zm7.75-20.5,6.37-.43-4.08,21-6.24-.06Zm-10,32.24-3.87,20.25-6-.83,3.74-19.78Zm-6.11,32-3.86,20.25-5.81-1.58,3.74-19.78Zm-34-72.75,6.36-.51-3.53,19.94-6.24,0Zm-8.37-10.05,3.2-18.67,6.54-1.23-3.33,19.15Zm10.34-1.22,3.4-19.45,6.57-1.29-3.54,19.94Zm7,79.35,5.94,1.11-3.46,18.76-5.82-1.56Zm1.93-10.62,3.34-18.3,6.13.4L388.36,260Zm7.64,12.4,5.94,1.11-3.66,19.49-5.82-1.57Zm8.06-10.2-6-.84,3.53-19,6.14.38Zm-4.23-31-6.2-.14,3.34-18.3,6.32-.31ZM384.21,129l3.41-19.45,7-2.85-3.53,19.94Zm4.8,9.21-3.54,19.94-6.64,1.58,3.41-19.45Zm-9-7.79-6.81,2.27,3.2-18.67,6.93-2.75Zm-1.93,11.11-3.33,19.15-6.61,1.51,3.2-18.67Zm-9-7.48-6.77,2.18,3-17.92,6.89-2.64Zm-1.81,10.66L364.14,163l-6.58,1.44,3-17.92ZM352.8,192.78l3-17.92,6.51-1.17-3.13,18.38Zm4.58,10-3.13,18.38-6.21,0,3-17.92Zm.8-65.27-6.74,2.09,2.82-17.18,6.85-2.54Zm-1.7,10.22-2.94,17.63L347,166.7l2.82-17.18Zm-4.64,27.86L348.9,193.2l-6.38.65,2.82-17.18Zm-4.64,27.86-2.94,17.63-6.19-.07,2.82-17.18Zm-5.65,56.36,6,1-3.13,18.38-5.83-1.52Zm1.74-10.39,3-17.92,6.14.31-3.13,18.38Zm7.84,12.08,6,1-3.33,19.15-5.83-1.53ZM353,250.64l3.2-18.67,6.15.29L359,251.41Zm5.06-29.5,3.2-18.67,6.35-.47-3.33,19.15Zm8.05,11.28,6.16.26-3.53,19.94-6-.76Zm9,66.27,5.75,1.82-3.46,18.75L371.81,317Zm9.26,2.94,5.74,1.84L386.49,323l-5.62-2.3Zm9.25,3,5.74,1.85-3.87,20.25-5.61-2.32Zm9.24,3,5.73,1.87-4.08,21-5.6-2.35Zm2.29-11.92,3.95-20.54,5.94,1.1-4.08,21Zm6.23-32.46,3.95-20.54,6.16.34-4.08,21Zm13.87-20,6.17.32-4.3,21.83-6-.81Zm9.51,57.88,5.82,1.56-5.09,25-5.66-2.11ZM434,230.86l-6.25,0,4.16-21.33,6.39-.47Zm.33-33.73,4.17-21.33,6.61-1.25-4.3,21.83Zm2.5-32.78-6.66,1.47,3.94-20.55,6.8-2Zm-2.37,12.2-4.08,21-6.45.71,3.95-20.54Zm-8.36-9.84-6.63,1.41,3.74-19.78,6.76-1.88Zm-2.24,11.74L420,198.71l-6.43.66,3.74-19.78ZM415.38,169l-6.61,1.35,3.53-19,6.73-1.81Zm-2.12,11.3-3.66,19.49-6.41.62,3.53-19Zm-5.78,30.8-3.66,19.49-6.21-.11,3.53-19Zm-8.2-10.32-6.39.57,3.34-18.3,6.51-1ZM381.5,84.47l7.13-3.5-3.33,19.15-7,3ZM370.08,90l7.08-3.38L374,105l-7,2.91Zm-11.35,5.29,7-3.26-2.94,17.63-6.92,2.81Zm-11.27,5.1,7-3.14-2.75,16.9-6.88,2.7Zm-4.18,26,6.81-2.44-2.75,16.9-6.7,2Zm-4.18,26,6.64-1.74L343,167.52l-6.53,1.3Zm-4.18,26,6.47-1-2.76,16.9-6.36.6Zm-4.18,26L337,204l-2.75,16.9-6.18-.1Zm-4.18,26,6.12.36-2.76,16.9-6-.8Zm1.76,27.06-2.75,16.9-5.83-1.5,2.65-16.46ZM315.74,164l6.53-1.4-2,12.77-6.45,1.06Zm3.4,18.77-2,12.77-6.32.51,1.9-12.43Zm-13.89-16.61,6.5-1.33-1.85,12.22-6.43,1Zm3.59,18L307,196.36l-6.3.46,1.77-11.88Zm-35.61,65.35,1.53-10.84,6,.82-1.6,11.16Zm5,7.6-1.6,11.16-5.8-1.63,1.53-10.84Zm14.91-34.78L291.41,234l-6-.62L287,222ZM288,215.44l1.65-11.35,6.24-.23-1.72,11.68Zm-3.76-.07-6.15-.13,1.53-10.84,6.22-.18Zm-.93,6.47L281.68,233l-6-.63,1.53-10.84Zm-1.46,36.06,5.88,1.32L286,270.9l-5.8-1.65Zm1-6.58L284.41,240l6,.8-1.72,11.68Zm8.51,8.71,5.88,1.32-1.85,12.22-5.8-1.66Zm1-6.89,1.77-11.88,6,.79-1.85,12.22Zm2.79-18.77,1.77-11.88,6.13.26L301.15,235Zm2.79-18.77,1.77-11.88,6.25-.27-1.85,12.22Zm-3.09-47.38,6.48-1.26-1.72,11.68-6.4.93Zm3.76,17.2-1.72,11.68-6.28.42,1.65-11.35ZM284.4,170.14l6.45-1.19-1.6,11.16-6.38.87ZM282,187.27l6.34-.68-1.6,11.16-6.27.37ZM274,172l6.42-1.11L279,181.49l-6.36.81Zm-2.23,16.34,6.32-.63-1.48,10.65-6.25.32Zm-2.23,16.34,6.21-.14-1.48,10.65-6.14-.16ZM267.34,221l6.1.34L272,232l-6-.65Zm-2.23,16.34,6,.83-1.48,10.65-5.92-1.14Zm-2.23,16.34,5.88,1.31-1.48,10.65L261.46,264Zm-.29,45.61L257,296.67l1.41-10.34,5.66,2.29Zm-3.36-18.93L260.64,270l5.77,1.8-1.48,10.65Zm12.34,23.17L266,300.86,267.52,290l5.65,2.32Zm-3.16-19.76,1.53-10.84,5.76,1.82-1.6,11.16Zm12.13,24.07L275,305.12l1.64-11.35,5.64,2.35Zm-3-20.62,1.64-11.35,5.76,1.84-1.72,11.68Zm11.9,25-5.54-2.72,1.77-11.88,5.62,2.38Zm-2.75-21.49,1.77-11.88,5.75,1.86-1.85,12.22Zm11.67,25.94-5.53-2.77,1.9-12.43,5.61,2.42Zm3.13-20.18-5.66-2.22,1.9-12.43,5.75,1.87Zm3.13-20.18-5.79-1.67,1.9-12.43,5.88,1.33Zm3.13-20.18L301.85,255l1.9-12.43,6,.78Zm3.13-20.18-6.06-.58,1.9-12.43,6.14.24Zm-3.06-20.21,1.9-12.43L316,203l-2,12.77ZM321.22,301l-5.66-2.2,2.64-16.46,5.77,1.76Zm9.11,3.58-5.65-2.23,2.82-17.18,5.77,1.77Zm9.09,3.63L333.78,306l3-17.92,5.76,1.79Zm9.08,3.67-5.63-2.28,3.2-18.67,5.76,1.8Zm9.06,3.72-5.62-2.31,3.41-19.45,5.75,1.82Zm-.24-33,3.41-19.45,6,1-3.53,19.94Zm9.22,63.32,3.34-18.31,5.56,2.53L372,348.9Zm8.75,4.81,3.53-19,5.54,2.56-3.66,19.5Zm8.73,4.89,3.73-19.78,5.54,2.6-3.87,20.25Zm8.7,5L396.67,340l5.52,2.63-4.08,21Zm14,8.2-5.37-3.17,4.16-21.33,5.51,2.67Zm6.8-34.48L408,331.92l4.16-21.33,5.73,1.88Zm1-36.08,4.16-21.33,5.95,1.1-4.3,21.82Zm7.53,66L427,339.74l5.57,2.43-5.09,25Zm8.71,4.83L436,343.67l5.55,2.46-5.36,25.93Zm19.69-18.89L444.84,377l-5.38-3.07,5.46-26.28Zm-.47-45-5.36,25.93L439,329l5.19-25.36Zm-1.32-42.06-5.1,25-5.91-1.24,4.94-24.47Zm3.18-123-4.3,21.82-6.69,1.54L445,142.11Zm-11.55-27.25,7-2.72-4.08,21-6.87,2.24Zm-11.24,4.27,7-2.63-3.86,20.25-6.84,2.16Zm-11.18,4.12,6.93-2.54-3.66,19.49-6.81,2.08Zm-11.12,4,6.89-2.44-3.46,18.75-6.78,2ZM401.5,154.1l6.7-1.73-3.46,18.75-6.58,1.28Z"/><polygon class="cls-4" points="453.54 209.56 453.54 208.25 453.27 209.59 453.54 209.56"/><polygon class="cls-4" points="445.47 248.24 451.63 248.6 453.54 239.24 453.54 223.68 450.41 223.77 445.47 248.24"/><polygon class="cls-4" points="437.67 286.9 443.58 288.14 448.68 263.11 442.61 262.43 437.67 286.9"/><polygon class="cls-4" points="447.19 288.89 453.11 290.13 453.54 288.03 453.54 263.66 452.39 263.53 447.19 288.89"/><polygon class="cls-4" points="440.63 302.65 434.81 301.09 429.87 325.55 435.53 327.67 440.63 302.65"/><polygon class="cls-4" points="438.99 328.96 444.64 331.1 450 305.17 444.18 303.6 438.99 328.96"/><polygon class="cls-4" points="453.54 334.49 453.54 306.18 448.09 332.41 453.54 334.49"/><polygon class="cls-4" points="427.01 339.74 422.07 364.21 427.48 367.2 432.58 342.18 427.01 339.74"/><polygon class="cls-4" points="435.98 343.67 430.78 369.04 436.18 372.07 441.53 346.14 435.98 343.67"/><polygon class="cls-4" points="439.46 373.93 444.84 377 450.47 350.14 444.93 347.65 439.46 373.93"/><polygon class="cls-4" points="453.48 382.01 453.54 381.73 453.54 353.17 448.12 378.9 453.48 382.01"/><polygon class="cls-4" points="180.78 182.3 179.36 171.96 172.94 170.84 174.42 181.49 180.78 182.3"/><polygon class="cls-4" points="170.53 180.98 169 170.14 162.55 168.96 164.15 180.11 170.53 180.98"/><polygon class="cls-4" points="160.25 179.56 158.6 168.21 152.12 166.95 153.84 178.63 160.25 179.56"/><polygon class="cls-4" points="149.92 178.04 148.16 166.16 141.65 164.83 143.5 177.05 149.92 178.04"/><polygon class="cls-4" points="139.56 176.43 137.67 164 131.13 162.6 133.11 175.37 139.56 176.43"/><polygon class="cls-4" points="176.76 198.32 183.01 198.64 181.59 188.3 175.28 187.67 176.76 198.32"/><polygon class="cls-4" points="166.68 197.74 172.94 198.11 171.42 187.27 165.08 186.58 166.68 197.74"/><polygon class="cls-4" points="156.56 197.09 162.84 197.5 161.2 186.15 154.84 185.41 156.56 197.09"/><polygon class="cls-4" points="146.42 196.36 152.72 196.82 150.95 184.94 144.57 184.14 146.42 196.36"/><polygon class="cls-4" points="136.24 195.55 142.56 196.06 140.66 183.63 134.26 182.78 136.24 195.55"/><polygon class="cls-4" points="179.11 215.14 185.24 214.98 183.83 204.64 177.62 204.49 179.11 215.14"/><polygon class="cls-4" points="167.6 204.21 169.21 215.37 175.35 215.23 173.83 204.39 167.6 204.21"/><polygon class="cls-4" points="157.56 203.86 159.28 215.54 165.44 215.44 163.8 204.09 157.56 203.86"/><polygon class="cls-4" points="147.49 203.44 149.34 215.66 155.51 215.59 153.74 203.71 147.49 203.44"/><polygon class="cls-4" points="143.66 203.26 137.39 202.95 139.37 215.72 145.56 215.69 143.66 203.26"/><polygon class="cls-4" points="181.45 231.97 187.47 231.32 186.06 220.98 179.97 221.32 181.45 231.97"/><polygon class="cls-4" points="170.13 221.84 171.73 232.99 177.76 232.36 176.24 221.52 170.13 221.84"/><polygon class="cls-4" points="160.28 222.31 162 233.99 168.04 233.38 166.4 222.02 160.28 222.31"/><polygon class="cls-4" points="158.31 234.36 156.54 222.48 150.41 222.74 152.26 234.96 158.31 234.36"/><polygon class="cls-4" points="146.66 222.9 140.52 223.13 142.5 235.9 148.56 235.32 146.66 222.9"/><polygon class="cls-4" points="183.79 248.79 189.71 247.65 188.3 237.31 182.31 238.14 183.79 248.79"/><polygon class="cls-4" points="172.66 239.46 174.26 250.62 180.18 249.49 178.65 238.65 172.66 239.46"/><polygon class="cls-4" points="170.64 251.31 168.99 239.96 163 240.76 164.72 252.44 170.64 251.31"/><polygon class="cls-4" points="161.1 253.13 159.33 241.25 153.33 242.05 155.18 254.26 161.1 253.13"/><polygon class="cls-4" points="149.66 242.53 143.65 243.31 145.63 256.08 151.56 254.95 149.66 242.53"/><polygon class="cls-4" points="186.13 265.62 191.94 263.99 190.53 253.65 184.65 254.97 186.13 265.62"/><polygon class="cls-4" points="182.59 266.61 181.06 255.77 175.18 257.09 176.78 268.25 182.59 266.61"/><polygon class="cls-4" points="173.24 269.25 171.59 257.9 165.71 259.22 167.44 270.9 173.24 269.25"/><polygon class="cls-4" points="163.89 271.91 162.12 260.02 156.25 261.35 158.09 273.57 163.89 271.91"/><polygon class="cls-4" points="152.66 262.16 146.78 263.49 148.76 276.26 154.55 274.59 152.66 262.16"/><polygon class="cls-4" points="188.48 282.44 194.18 280.33 192.76 269.99 187 271.79 188.48 282.44"/><polygon class="cls-4" points="183.47 272.9 177.71 274.72 179.31 285.87 185 283.74 183.47 272.9"/><polygon class="cls-4" points="175.83 287.19 174.19 275.83 168.43 277.67 170.15 289.35 175.83 287.19"/><polygon class="cls-4" points="164.92 278.8 159.17 280.65 161.01 292.87 166.69 290.68 164.92 278.8"/><polygon class="cls-4" points="155.65 281.79 149.91 283.66 151.89 296.44 157.55 294.22 155.65 281.79"/><polygon class="cls-4" points="190.82 299.27 196.41 296.67 195 286.33 189.34 288.62 190.82 299.27"/><polygon class="cls-4" points="180.24 292.34 181.84 303.5 187.41 300.86 185.88 290.02 180.24 292.34"/><polygon class="cls-4" points="171.15 296.12 172.87 307.8 178.43 305.12 176.79 293.77 171.15 296.12"/><polygon class="cls-4" points="167.71 297.57 162.09 299.95 163.93 312.17 169.48 309.45 167.71 297.57"/><polygon class="cls-4" points="153.04 303.84 155.02 316.62 160.55 313.85 158.65 301.42 153.04 303.84"/><polygon class="cls-4" points="108.59 116.8 105.95 100.34 98.96 97.2 101.72 114.11 108.59 116.8"/><polygon class="cls-4" points="97.5 112.42 94.68 95.25 87.64 91.99 90.58 109.62 97.5 112.42"/><polygon class="cls-4" points="86.34 107.87 83.33 89.96 76.25 86.58 79.38 104.96 86.34 107.87"/><polygon class="cls-4" points="75.11 103.14 71.91 84.47 64.78 80.97 68.11 100.12 75.11 103.14"/><polygon class="cls-4" points="63.81 98.24 60.41 78.79 53.23 75.16 56.76 95.1 63.81 98.24"/><polygon class="cls-4" points="106.07 140.81 112.77 142.81 110.13 126.35 103.31 123.91 106.07 140.81"/><polygon class="cls-4" points="92.28 119.85 95.22 137.48 101.96 139.56 99.14 122.39 92.28 119.85"/><polygon class="cls-4" points="81.19 115.62 84.32 134 91.09 136.18 88.08 118.26 81.19 115.62"/><polygon class="cls-4" points="70.03 111.23 73.36 130.38 80.17 132.65 76.97 113.97 70.03 111.23"/><polygon class="cls-4" points="58.81 106.67 62.34 126.61 69.19 128.97 65.78 109.52 58.81 106.67"/><polygon class="cls-4" points="110.42 167.52 116.95 168.82 114.31 152.35 107.67 150.61 110.42 167.52"/><polygon class="cls-4" points="96.93 147.7 99.86 165.34 106.42 166.7 103.6 149.53 96.93 147.7"/><polygon class="cls-4" points="89.26 163.04 95.85 164.48 92.84 146.56 86.14 144.66 89.26 163.04"/><polygon class="cls-4" points="78.62 160.64 85.23 162.14 82.03 143.47 75.29 141.49 78.62 160.64"/><polygon class="cls-4" points="67.93 158.11 74.57 159.69 71.16 140.25 64.39 138.17 67.93 158.11"/><polygon class="cls-4" points="114.77 194.22 121.13 194.82 118.48 178.36 112.02 177.32 114.77 194.22"/><polygon class="cls-4" points="101.57 175.56 104.51 193.2 110.88 193.84 108.06 176.67 101.57 175.56"/><polygon class="cls-4" points="91.08 173.7 94.21 192.09 100.6 192.78 97.59 174.87 91.08 173.7"/><polygon class="cls-4" points="87.09 172.97 80.55 171.74 83.88 190.9 90.29 191.64 87.09 172.97"/><polygon class="cls-4" points="79.95 190.42 76.54 170.97 69.98 169.68 73.51 189.62 79.95 190.42"/><polygon class="cls-4" points="119.13 220.93 125.31 220.83 122.67 204.37 116.37 204.03 119.13 220.93"/><polygon class="cls-4" points="115.34 220.98 112.52 203.81 106.21 203.42 109.15 221.05 115.34 220.98"/><polygon class="cls-4" points="105.36 221.09 102.35 203.17 96.02 202.75 99.15 221.13 105.36 221.09"/><polygon class="cls-4" points="92.15 202.47 85.81 202 89.13 221.15 95.35 221.14 92.15 202.47"/><polygon class="cls-4" points="85.33 221.15 81.92 201.7 75.56 201.18 79.09 221.12 85.33 221.15"/><polygon class="cls-4" points="123.48 247.63 129.49 246.83 126.84 230.37 120.72 230.73 123.48 247.63"/><polygon class="cls-4" points="116.98 230.94 110.85 231.28 113.79 248.91 119.81 248.12 116.98 230.94"/><polygon class="cls-4" points="107.1 231.47 100.97 231.79 104.09 250.17 110.11 249.39 107.1 231.47"/><polygon class="cls-4" points="100.41 250.64 97.21 231.97 91.06 232.26 94.39 251.41 100.41 250.64"/><polygon class="cls-4" points="90.71 251.87 87.3 232.42 81.14 232.69 84.68 252.63 90.71 251.87"/><polygon class="cls-4" points="127.83 274.34 133.67 272.84 131.02 256.38 125.08 257.44 127.83 274.34"/><polygon class="cls-4" points="124.27 275.26 121.44 258.08 115.5 259.14 118.43 276.77 124.27 275.26"/><polygon class="cls-4" points="114.87 277.69 111.86 259.78 105.91 260.83 109.04 279.21 114.87 277.69"/><polygon class="cls-4" points="105.47 280.14 102.27 261.47 96.32 262.51 99.65 281.66 105.47 280.14"/><polygon class="cls-4" points="92.68 263.15 86.73 264.19 90.26 284.13 96.08 282.6 92.68 263.15"/><polygon class="cls-4" points="129.43 284.14 132.18 301.05 137.84 298.85 135.2 282.39 129.43 284.14"/><polygon class="cls-4" points="120.14 286.99 123.08 304.63 128.73 302.4 125.9 285.22 120.14 286.99"/><polygon class="cls-4" points="110.85 289.87 113.98 308.25 119.62 306 116.61 288.08 110.85 289.87"/><polygon class="cls-4" points="101.58 292.77 104.9 311.92 110.53 309.64 107.33 290.97 101.58 292.77"/><polygon class="cls-4" points="92.31 295.7 95.84 315.64 101.46 313.33 98.06 293.88 92.31 295.7"/><polygon class="cls-4" points="49.97 143.48 46.64 125.18 39.74 122.73 43.2 141.49 49.97 143.48"/><polygon class="cls-4" points="39.05 140.24 35.52 121.21 28.59 118.67 32.24 138.17 39.05 140.24"/><polygon class="cls-4" points="28.07 136.88 24.34 117.1 17.37 114.47 21.23 134.72 28.07 136.88"/><polygon class="cls-4" points="17.05 133.38 13.1 112.83 6.09 110.11 10.17 131.14 17.05 133.38"/><polygon class="cls-4" points="1.8 108.41 0 107.69 0 127.74 5.96 129.74 1.8 108.41"/><polygon class="cls-4" points="48.66 171.12 55.24 172.4 51.91 154.1 45.2 152.36 48.66 171.12"/><polygon class="cls-4" points="34.37 149.47 38.02 168.97 44.63 170.31 41.1 151.28 34.37 149.47"/><polygon class="cls-4" points="23.48 146.46 27.34 166.72 33.98 168.13 30.24 148.35 23.48 146.46"/><polygon class="cls-4" points="12.54 143.33 16.62 164.36 23.28 165.83 19.33 145.29 12.54 143.33"/><polygon class="cls-4" points="8.38 142.11 1.55 140.08 5.85 161.9 12.54 163.44 8.38 142.11"/><polygon class="cls-4" points="50.67 181.99 54.12 200.75 60.52 201.32 57.18 183.02 50.67 181.99"/><polygon class="cls-4" points="40.15 180.27 43.8 199.77 50.21 200.38 46.68 181.35 40.15 180.27"/><polygon class="cls-4" points="33.45 198.71 39.88 199.38 36.14 179.6 29.58 178.46 33.45 198.71"/><polygon class="cls-4" points="23.07 197.58 29.51 198.29 25.57 177.75 18.98 176.56 23.07 197.58"/><polygon class="cls-4" points="12.65 196.38 19.12 197.14 14.96 175.81 8.35 174.56 12.65 196.38"/><polygon class="cls-4" points="65.79 230.24 62.45 211.94 56.13 211.62 59.59 230.38 65.79 230.24"/><polygon class="cls-4" points="49.58 230.56 55.79 230.45 52.26 211.42 45.92 211.07 49.58 230.56"/><polygon class="cls-4" points="45.78 230.63 42.04 210.84 35.69 210.46 39.55 230.71 45.78 230.63"/><polygon class="cls-4" points="25.43 209.78 29.51 230.81 35.75 230.75 31.8 210.21 25.43 209.78"/><polygon class="cls-4" points="25.7 230.83 21.53 209.5 15.15 209.04 19.45 230.86 25.7 230.83"/><polygon class="cls-4" points="67.72 240.85 61.59 241.25 65.05 260.01 71.06 259.16 67.72 240.85"/><polygon class="cls-4" points="55.36 261.36 61.37 260.52 57.84 241.49 51.7 241.87 55.36 261.36"/><polygon class="cls-4" points="51.68 261.87 47.95 242.09 41.8 242.45 45.66 262.7 51.68 261.87"/><polygon class="cls-4" points="41.98 263.21 38.04 242.66 31.88 243 35.96 264.03 41.98 263.21"/><polygon class="cls-4" points="32.28 264.53 28.11 243.2 21.95 243.52 26.25 265.34 32.28 264.53"/><polygon class="cls-4" points="76.33 288.08 72.99 269.77 67.05 270.88 70.51 289.64 76.33 288.08"/><polygon class="cls-4" points="66.95 290.59 63.42 271.56 57.48 272.67 61.14 292.16 66.95 290.59"/><polygon class="cls-4" points="57.58 293.12 53.85 273.34 47.9 274.45 51.77 294.7 57.58 293.12"/><polygon class="cls-4" points="48.22 295.67 44.27 275.12 38.33 276.23 42.41 297.25 48.22 295.67"/><polygon class="cls-4" points="34.69 276.9 28.75 278 33.05 299.82 38.86 298.23 34.69 276.9"/><polygon class="cls-4" points="81.6 317 78.26 298.69 72.51 300.51 75.97 319.27 81.6 317"/><polygon class="cls-4" points="72.53 320.66 69 301.63 63.26 303.47 66.92 322.96 72.53 320.66"/><polygon class="cls-4" points="63.48 324.37 59.75 304.59 54.01 306.44 57.88 326.69 63.48 324.37"/><polygon class="cls-4" points="54.45 328.12 50.51 307.58 44.77 309.45 48.85 330.48 54.45 328.12"/><polygon class="cls-4" points="41.27 310.6 35.54 312.48 39.85 334.31 45.44 331.92 41.27 310.6"/><polygon class="cls-4" points="77.97 330.14 81.43 348.9 86.87 345.92 83.53 327.61 77.97 330.14"/><polygon class="cls-4" points="69.04 334.26 72.69 353.76 78.11 350.73 74.58 331.7 69.04 334.26"/><polygon class="cls-4" points="60.12 338.44 63.98 358.69 69.39 355.62 65.65 335.84 60.12 338.44"/><polygon class="cls-4" points="51.22 342.67 55.3 363.7 60.69 360.58 56.74 340.04 51.22 342.67"/><polygon class="cls-3" points="130.45 137.61 112.31 145.33 118.91 180.98 142.56 180.27 130.45 137.61"/><polygon class="cls-4" points="42.34 346.96 46.65 368.79 52.01 365.62 47.85 344.29 42.34 346.96"/><path class="cls-5" d="M214.66,379.9l-28.6-214.11-14.22-2.89-1.92-13.77-39.47-11.52L133,153.9,121.71,151l-9.3-58.89L73.91,72.86,69.05,44.3l-33-20.84,5.74,31.91.93,5.17,9.75,54.22L0,92.6v15.09l1.8.72L6,129.74l-6-2v81.19l.13.66H0v14.11l3,.09,4.94,24.47-6.16.36L0,239.9v23.74l1-.11,5.19,25.36L.3,290.13,0,288.68v18.16l5.31,25.58-5.31,2v19.37L5.28,378.9,0,382v71.57H152.17l14.24-19.46ZM156.54,222.48l1.77,11.88-6,.6-1.85-12.22Zm-7.2-6.82-1.85-12.22,6.25.27,1.77,11.88Zm24.92,35-1.6-11.16,6-.82,1.53,10.84Zm6.8,5.15,1.53,10.84-5.8,1.63-1.6-11.16ZM171.73,233l-1.6-11.16,6.11-.32,1.53,10.84Zm-2.52-17.63-1.6-11.16,6.22.18,1.53,10.84Zm-1.16,18-6,.62-1.72-11.68,6.12-.29Zm-8.76-17.84-1.72-11.68,6.24.23,1.64,11.35Zm0,25.71,1.77,11.88-5.92,1.13L153.33,242ZM162.12,260l1.77,11.88-5.8,1.66-1.85-12.22Zm.87-19.26,6-.8,1.64,11.35-5.92,1.13Zm8.6,17.13,1.64,11.35-5.8,1.65-1.72-11.68Zm2.6,17.94,1.64,11.35-5.68,2.16-1.72-11.68Zm-1.32,32-1.72-11.68,5.64-2.35,1.64,11.35Zm4.84-33.09,5.76-1.82L185,283.74l-5.69,2.14Zm4.13,28.78-1.6-11.16,5.65-2.32,1.53,10.84Zm14.57-6.83-5.59,2.59-1.48-10.65,5.66-2.29Zm-2.23-16.34-5.7,2.11L187,271.79l5.77-1.8ZM191.94,264l-5.81,1.62L184.65,255l5.88-1.31Zm-2.23-16.34-5.92,1.14-1.48-10.65,6-.83ZM186.06,221l1.41,10.34-6,.65L180,221.32Zm-.82-6-6.14.16-1.48-10.65,6.21.14ZM183,198.64l-6.25-.32-1.48-10.65,6.31.63ZM179.36,172l1.42,10.34-6.36-.81-1.48-10.65Zm-6.42,26.15-6.26-.37-1.6-11.16,6.34.68Zm-3.94-28L170.53,181l-6.38-.87L162.55,169Zm-6.16,27.36-6.28-.42-1.72-11.68,6.36.74Zm-4.24-29.29,1.64,11.35-6.4-.93L152.12,167Zm-5.88,28.61-6.3-.46-1.85-12.22,6.38.8Zm-4.56-30.65L149.92,178l-6.43-1-1.85-12.22Zm-5.6,29.89-6.32-.51-2-12.77,6.4.86ZM137.67,164l1.9,12.43-6.45-1.06-2-12.77Zm-4,108.84-5.84,1.5-2.76-16.9,5.95-1.06Zm-4.18-26-6,.8-2.75-16.9,6.12-.36Zm-25-53.64-2.94-17.63,6.49,1.1,2.82,17.18Zm8,10.61L115.34,221l-6.2.07-2.94-17.63Zm-10.17-.63,3,17.92-6.21,0L96,202.74Zm-8.14-11.09L91.08,173.7l6.51,1.17,3,17.92Zm5.66-26.75L96.93,147.7l6.67,1.82,2.82,17.18Zm-4.64-27.86-2.94-17.63,6.85,2.54L102,139.56Zm-2.38,9.09,3,17.92L89.26,163l-3.13-18.38ZM35.69,210.46l6.35.39,3.73,19.78-6.22.08Zm.06,20.29-6.24.06-4.08-21,6.37.43Zm12.2,11.34,3.74,19.78-6,.83L41.8,242.45Zm5.9,31.25,3.74,19.78-5.81,1.58L47.9,274.45Zm4-31.85,3.53,19-6,.84L51.7,241.87Zm-1.71-29.87,6.32.31,3.34,18.3-6.2.14Zm1.35,61,5.94-1.11,3.53,19-5.82,1.57ZM65,260l-3.46-18.75,6.13-.4,3.34,18.3ZM70,169.68,76.54,171l3.4,19.45-6.44-.8Zm3,100.1,3.34,18.3-5.82,1.56-3.46-18.76Zm2.57-68.59,6.36.51,3.4,19.45-6.23,0Zm8.32-10.29-3.33-19.15L87.09,173l3.2,18.67ZM84.32,134l-3.13-18.38,6.89,2.64,3,17.92ZM82,143.47l3.2,18.67-6.61-1.51-3.33-19.15Zm-8.67-13.09L70,111.23,77,114l3.2,18.67Zm-2.2,9.87,3.41,19.45-6.64-1.58-3.53-19.94Zm-8.82-13.64-3.53-19.94,7,2.85L69.19,129Zm-1.83,74.71-6.39-.57L50.67,182l6.51,1Zm-8.26,10.1,3.53,19-6.21.11-3.66-19.49ZM43.8,199.77l-3.66-19.49,6.54,1.08,3.53,19ZM38,169l-3.66-19.49,6.73,1.81,3.53,19ZM36.14,179.6l3.74,19.78-6.43-.66-3.87-20.25Zm-8.8-12.88-3.87-20.25,6.77,1.88L34,168.13Zm-1.77,11,3.95,20.54-6.45-.71-4.08-21Zm-8.95-13.39-4.08-21,6.79,2,3.95,20.55Zm2.5,32.78-6.47-.75-4.3-21.83L15,175.81Zm2.41,12.37,4.16,21.33-6.25,0L15.15,209Zm2,116-5.66,2.11-5.09-25,5.82-1.56Zm-1.59-82,6.17-.32,4.16,21.33-6,.81Zm9.94-.52,6.16-.34L42,263.21,36,264Zm12.39,32.12,3.95,20.54-5.81,1.59-4.08-21Zm6.23,32.46,3.95,20.54-5.6,2.35-4.08-21Zm3.5-1.14,5.74-1.85,3.74,19.78-5.61,2.32Zm9.25-3L69,301.63l3.53,19L66.91,323Zm9.26-3,5.75-1.82L81.6,317,76,319.27Zm8.63-67.83,6.16-.26,3.4,19.45-6,.76Zm8-11.54L85.81,202l6.34.47,3.2,18.67ZM97.21,232l3.2,18.67-6,.77-3.33-19.15Zm5.06,29.5,3.2,18.67-5.83,1.53-3.33-19.15Zm1.82-11.3L101,231.79l6.14-.31,3,17.92Zm7.76,9.61,3,17.91L109,279.21l-3.13-18.38Zm1.93-10.87-2.94-17.63,6.13-.33,2.82,17.18Zm7.65,9.17,2.82,17.18-5.83,1.51-2.94-17.63Zm1.22-53.71,2.64,16.46-6.18.1L116.37,204Zm-1.54-9.54-6.36-.6L112,177.32l6.47,1Zm-4.18-26-6.53-1.3-2.75-16.9,6.64,1.74Zm-4.18-26-6.7-2-2.75-16.9,6.81,2.44Zm-6.82-42.47,2.65,16.46-6.88-2.7L99,97.2Zm-11.27-5.1,2.82,17.18-6.92-2.81L87.64,92ZM83.33,90l3,17.91-7-2.91L76.25,86.58ZM71.91,84.47l3.2,18.67-7-3L64.78,81Zm-11.5-5.68,3.41,19.45-7-3.14L53.23,75.16ZM55.25,172.4l-6.58-1.28L45.2,152.36l6.7,1.73Zm-8.61-47.22L50,143.48l-6.77-2-3.46-18.75Zm-11.12-4,3.53,19-6.81-2.08-3.66-19.49ZM24.34,117.1l3.74,19.78-6.84-2.16-3.87-20.25ZM13.1,112.83,17,133.38l-6.87-2.24-4.08-21ZM5.85,161.9l-4.3-21.82,6.83,2,4.17,21.33ZM4.73,263.11l6.07-.68,4.94,24.47-5.91,1.24ZM3.41,305.17l5.82-1.57L14.42,329,8.77,331.1ZM8.56,377,2.94,350.14l5.55-2.49,5.46,26.28Zm8.67-4.94-5.36-25.93,5.56-2.46L22.62,369Zm8.69-4.87-5.1-25,5.57-2.43,4.94,24.46ZM28.75,278l5.95-1.1,4.16,21.33L33,299.82Zm6.8,34.48,5.73-1.88,4.16,21.33-5.59,2.38Zm11.1,56.31L42.34,347l5.51-2.67L52,365.62Zm8.65-5.08-4.08-21L56.74,340l3.95,20.54Zm8.68-5-3.87-20.25,5.53-2.6,3.73,19.78Zm8.71-4.93L69,334.26l5.55-2.56,3.53,19Zm8.74-4.86L78,330.14l5.56-2.53,3.34,18.31Zm5.29-84.7,6-1,3.4,19.45-5.83,1.54Zm9.12,51.45L92.31,295.7l5.75-1.82,3.4,19.45Zm9.06-3.72-3.33-19.15,5.75-1.8,3.2,18.67Zm9.08-3.67-3.13-18.38,5.76-1.79,3,17.92Zm9.09-3.62L120.14,287l5.77-1.77,2.82,17.18Zm9.11-3.58-2.76-16.9,5.77-1.76,2.64,16.46ZM137.39,203l6.27.31,1.9,12.43-6.19,0Zm3.13,20.18,6.14-.24,1.9,12.43-6.06.58Zm3.13,20.18,6-.78,1.9,12.43-5.93,1.13Zm3.13,20.18,5.88-1.33,1.9,12.43-5.79,1.67Zm3.13,20.18,5.75-1.87,1.9,12.43-5.66,2.22Zm5.11,33-2-12.77,5.61-2.42,1.9,12.43Zm4.15-36,5.75-1.86,1.77,11.88L161,292.87Zm2.92,19.3,5.63-2.38,1.77,11.88-5.54,2.72Z"/><polygon class="cls-4" points="0 208.92 0 209.57 0.13 209.59 0 208.92"/><polygon class="cls-4" points="7.93 248.24 3 223.77 0 223.68 0 239.9 1.77 248.6 7.93 248.24"/><polygon class="cls-4" points="15.73 286.9 10.8 262.43 4.73 263.11 9.82 288.14 15.73 286.9"/><polygon class="cls-4" points="6.21 288.89 1.02 263.53 0 263.64 0 288.68 0.3 290.13 6.21 288.89"/><polygon class="cls-4" points="17.87 327.67 23.53 325.55 18.6 301.09 12.78 302.65 17.87 327.67"/><polygon class="cls-4" points="14.42 328.96 9.22 303.6 3.41 305.17 8.77 331.1 14.42 328.96"/><polygon class="cls-4" points="0 306.83 0 334.44 5.31 332.41 0 306.83"/><polygon class="cls-4" points="20.83 342.18 25.92 367.2 31.33 364.21 26.39 339.74 20.83 342.18"/><polygon class="cls-4" points="11.87 346.14 17.23 372.07 22.62 369.04 17.43 343.67 11.87 346.14"/><polygon class="cls-4" points="2.94 350.14 8.56 377 13.94 373.93 8.48 347.65 2.94 350.14"/><polygon class="cls-4" points="0 353.81 0 381.97 5.29 378.9 0 353.81"/><polygon class="cls-6" points="250.01 298.69 229.17 298.17 226.2 298.17 203.81 298.17 0 453.49 225.95 453.49 227.18 453.49 453.13 453.49 250.01 298.69"/><path class="cls-7" d="M328.43,13.29a8.17,8.17,0,0,1-11.27,11.27,8.17,8.17,0,1,0,11.27-11.27Z"/></svg>